<svg width="100" height="100" viewBox="0 0 100 100" fill="current" xmlns="http://www.w3.org/2000/svg">
<path fill-rule="evenodd" clip-rule="evenodd" d="M68.8333 21.971C74.1333 21.7085 78.125 26.071 78.125 31.0502V53.796C78.125 59.046 73.8833 63.071 68.9417 63.4377C66.8875 63.5918 64.8167 63.8418 63.2417 64.2252C60.1667 64.9752 56.1125 66.9335 53.5708 68.2752C52.4698 68.8547 51.2442 69.1575 50 69.1575C48.7558 69.1575 47.5302 68.8547 46.4292 68.2752C43.8875 66.9377 39.8333 64.9752 36.7583 64.2252C35.1875 63.8418 33.1125 63.5918 31.0583 63.4335C26.1167 63.0668 21.875 59.0502 21.875 53.796V31.2335C21.875 26.1502 26.0333 21.7418 31.425 22.1377C33.6125 22.296 36.1333 22.5793 38.2417 23.096C42.0833 24.0293 46.6583 26.2752 49.2208 27.621C49.65 27.846 50.1792 27.8377 50.6083 27.5877C52.925 26.2502 56.9458 24.0793 60.4167 23.1168C63.0125 22.396 66.2083 22.1002 68.8333 21.971ZM71.875 31.0502C71.875 29.3085 70.5458 28.1418 69.1375 28.2127C66.6292 28.3377 63.9917 28.6127 62.0833 29.1418C59.4583 29.8668 56.0375 31.671 53.7417 33.0002C53.541 33.115 53.3352 33.2207 53.125 33.3168V61.496C55.6667 60.2627 58.9167 58.846 61.7583 58.1543C63.8333 57.646 66.3125 57.3627 68.475 57.2043C70.4583 57.0585 71.875 55.4835 71.875 53.796V31.0502ZM46.3167 33.1543C46.5 33.2502 46.6875 33.3418 46.875 33.421V61.496C44.3333 60.2627 41.0833 58.846 38.2417 58.1543C36.1667 57.646 33.6875 57.3627 31.525 57.2043C29.5417 57.0585 28.125 55.4835 28.125 53.796V31.2335C28.125 29.4585 29.5125 28.2627 30.9667 28.371C33.05 28.521 35.1625 28.7752 36.7583 29.1627C39.7833 29.9043 43.7667 31.8168 46.3167 33.1543Z" fill="#FFF8E7"/>
<path fill-rule="evenodd" clip-rule="evenodd" d="M41.4333 1.04175C33.775 1.04175 27.7083 1.04175 22.9583 1.67925C18.075 2.33758 14.1208 3.72091 11 6.83758C7.88333 9.95842 6.5 13.9126 5.84166 18.7959C5.20416 23.5459 5.20416 29.6084 5.20416 37.2668V54.4001C5.20416 62.0584 5.20416 68.1251 5.84166 72.8709C6.5 77.7543 7.88333 81.7084 11 84.8293C14.1208 87.9459 18.075 89.3293 22.9583 89.9876C27.7083 90.6251 33.7708 90.6251 41.4292 90.6251H58.5625C66.2208 90.6251 72.2875 90.6251 77.0333 89.9876C81.9167 89.3293 85.8708 87.9459 88.9917 84.8293C92.1083 81.7084 93.4917 77.7543 94.15 72.8709C94.7875 68.1209 94.7875 62.0584 94.7875 54.4001V37.2709C94.7875 29.6126 94.7875 23.5459 94.15 18.8001C93.4917 13.9167 92.1083 9.96258 88.9917 6.84175C85.875 3.72091 81.9167 2.33758 77.0375 1.67925C72.2875 1.04175 66.225 1.04175 58.5667 1.04175H41.4333ZM15.425 11.2584C17.1875 9.49591 19.6042 8.43758 23.7958 7.87508C28.0792 7.30008 33.7208 7.29175 41.6667 7.29175H58.3333C66.2792 7.29175 71.925 7.30008 76.2083 7.87508C80.3958 8.43758 82.8125 9.49591 84.575 11.2584C86.3375 13.0209 87.3958 15.4376 87.9583 19.6292C88.5333 23.9126 88.5417 29.5543 88.5417 37.5001V54.1668C88.5417 62.1126 88.5333 67.7584 87.9583 72.0418C87.3958 76.2293 86.3375 78.6459 84.575 80.4084C82.8125 82.1709 80.3958 83.2293 76.2042 83.7918C71.925 84.3668 66.2792 84.3751 58.3333 84.3751H41.6667C33.7208 84.3751 28.0792 84.3668 23.7917 83.7918C19.6042 83.2293 17.1875 82.1709 15.425 80.4084C13.6625 78.6459 12.6042 76.2293 12.0417 72.0376C11.4667 67.7584 11.4583 62.1126 11.4583 54.1668V37.5001C11.4583 29.5543 11.4667 23.9126 12.0417 19.6251C12.6042 15.4376 13.6625 13.0209 15.425 11.2584Z" fill="#FFF8E7"/>
</svg>
